<svg xmlns="http://www.w3.org/2000/svg" xmlns:xlink="http://www.w3.org/1999/xlink" width="150" zoomAndPan="magnify" viewBox="0 0 112.5 56.249996" height="75" preserveAspectRatio="xMidYMid meet" version="1.0"><defs><g/></defs><g fill="#000000" fill-opacity="1"><g transform="translate(7.587263, 36.840384)"><g><path d="M 13.984375 -18.6875 L 13.984375 -6.5625 C 13.984375 -5.570312 13.835938 -4.65625 13.546875 -3.8125 C 13.253906 -2.96875 12.8125 -2.226562 12.21875 -1.59375 C 11.625 -0.96875 10.878906 -0.484375 9.984375 -0.140625 C 9.085938 0.203125 8.035156 0.375 6.828125 0.375 C 5.710938 0.375 4.710938 0.222656 3.828125 -0.078125 C 2.953125 -0.390625 2.125 -0.816406 1.34375 -1.359375 L 2.828125 -3.734375 C 3.515625 -3.265625 4.15625 -2.941406 4.75 -2.765625 C 5.34375 -2.585938 5.972656 -2.5 6.640625 -2.5 C 7.703125 -2.5 8.5625 -2.84375 9.21875 -3.53125 C 9.882812 -4.21875 10.21875 -5.226562 10.21875 -6.5625 L 10.21875 -15.875 L 4.53125 -15.875 L 4.53125 -18.6875 Z M 13.984375 -18.6875 "/></g></g></g><g fill="#000000" fill-opacity="1"><g transform="translate(23.805423, 36.840384)"><g><path d="M 13.65625 -3.8125 C 13.65625 -3.257812 13.734375 -2.859375 13.890625 -2.609375 C 14.046875 -2.367188 14.300781 -2.179688 14.65625 -2.046875 L 13.875 0.375 C 13.101562 0.289062 12.441406 0.101562 11.890625 -0.1875 C 11.347656 -0.488281 10.9375 -0.941406 10.65625 -1.546875 C 10.113281 -0.890625 9.425781 -0.394531 8.59375 -0.0625 C 7.769531 0.257812 6.90625 0.421875 6 0.421875 C 4.539062 0.421875 3.378906 0.00390625 2.515625 -0.828125 C 1.660156 -1.660156 1.234375 -2.738281 1.234375 -4.0625 C 1.234375 -5.59375 1.832031 -6.769531 3.03125 -7.59375 C 4.226562 -8.425781 5.925781 -8.84375 8.125 -8.84375 L 10.09375 -8.84375 L 10.09375 -9.578125 C 10.09375 -10.421875 9.832031 -11.03125 9.3125 -11.40625 C 8.800781 -11.78125 8.0625 -11.96875 7.09375 -11.96875 C 6.625 -11.96875 6.046875 -11.90625 5.359375 -11.78125 C 4.671875 -11.65625 3.960938 -11.472656 3.234375 -11.234375 L 2.359375 -13.71875 C 3.273438 -14.0625 4.195312 -14.316406 5.125 -14.484375 C 6.0625 -14.648438 6.90625 -14.734375 7.65625 -14.734375 C 9.6875 -14.734375 11.191406 -14.304688 12.171875 -13.453125 C 13.160156 -12.597656 13.65625 -11.382812 13.65625 -9.8125 Z M 7.1875 -2.234375 C 7.726562 -2.234375 8.269531 -2.378906 8.8125 -2.671875 C 9.363281 -2.972656 9.789062 -3.398438 10.09375 -3.953125 L 10.09375 -6.6875 L 8.734375 -6.6875 C 7.421875 -6.6875 6.472656 -6.476562 5.890625 -6.0625 C 5.316406 -5.644531 5.03125 -5.046875 5.03125 -4.265625 C 5.03125 -3.617188 5.210938 -3.117188 5.578125 -2.765625 C 5.953125 -2.410156 6.488281 -2.234375 7.1875 -2.234375 Z M 7.1875 -2.234375 "/></g></g></g><g fill="#000000" fill-opacity="1"><g transform="translate(40.023584, 36.840384)"><g><path d="M 9.390625 -2.515625 C 10.015625 -2.515625 10.597656 -2.628906 11.140625 -2.859375 C 11.691406 -3.085938 12.226562 -3.382812 12.75 -3.75 L 14.40625 -1.421875 C 13.78125 -0.890625 13.019531 -0.445312 12.125 -0.09375 C 11.226562 0.25 10.265625 0.421875 9.234375 0.421875 C 7.722656 0.421875 6.429688 0.109375 5.359375 -0.515625 C 4.285156 -1.140625 3.460938 -2.015625 2.890625 -3.140625 C 2.328125 -4.273438 2.046875 -5.582031 2.046875 -7.0625 C 2.046875 -8.539062 2.335938 -9.859375 2.921875 -11.015625 C 3.503906 -12.171875 4.335938 -13.078125 5.421875 -13.734375 C 6.503906 -14.398438 7.796875 -14.734375 9.296875 -14.734375 C 10.335938 -14.734375 11.273438 -14.585938 12.109375 -14.296875 C 12.941406 -14.003906 13.703125 -13.566406 14.390625 -12.984375 L 12.765625 -10.75 C 12.242188 -11.101562 11.703125 -11.378906 11.140625 -11.578125 C 10.585938 -11.773438 10.007812 -11.875 9.40625 -11.875 C 8.363281 -11.875 7.515625 -11.5 6.859375 -10.75 C 6.203125 -10 5.875 -8.769531 5.875 -7.0625 C 5.875 -5.945312 6.023438 -5.054688 6.328125 -4.390625 C 6.640625 -3.722656 7.0625 -3.242188 7.59375 -2.953125 C 8.125 -2.660156 8.722656 -2.515625 9.390625 -2.515625 Z M 9.390625 -2.515625 "/></g></g></g><g fill="#000000" fill-opacity="1"><g transform="translate(56.241745, 36.840384)"><g><path d="M 15.25 -14.3125 L 10 -7.953125 L 15.75 0 L 11.46875 0 L 6.03125 -7.84375 L 11.25 -14.3125 Z M 5.84375 -20.421875 L 5.84375 0 L 2.1875 0 L 2.1875 -20.03125 Z M 5.84375 -20.421875 "/></g></g></g><g fill="#000000" fill-opacity="1"><g transform="translate(72.459906, 36.840384)"><g><path d="M 10.4375 -14.3125 L 10.4375 -2.5625 L 14.1875 -2.5625 L 14.1875 0 L 2.625 0 L 2.625 -2.5625 L 6.78125 -2.5625 L 6.78125 -11.75 L 2.75 -11.75 L 2.75 -14.3125 Z M 8.09375 -21.578125 C 8.757812 -21.578125 9.300781 -21.367188 9.71875 -20.953125 C 10.132812 -20.535156 10.34375 -20.023438 10.34375 -19.421875 C 10.34375 -18.796875 10.132812 -18.273438 9.71875 -17.859375 C 9.300781 -17.453125 8.757812 -17.25 8.09375 -17.25 C 7.425781 -17.25 6.882812 -17.453125 6.46875 -17.859375 C 6.050781 -18.273438 5.84375 -18.796875 5.84375 -19.421875 C 5.84375 -20.023438 6.050781 -20.535156 6.46875 -20.953125 C 6.882812 -21.367188 7.425781 -21.578125 8.09375 -21.578125 Z M 8.09375 -21.578125 "/></g></g></g><g fill="#000000" fill-opacity="1"><g transform="translate(88.678066, 36.840384)"><g><path d="M 5.25 -6.0625 C 5.332031 -5.175781 5.539062 -4.457031 5.875 -3.90625 C 6.207031 -3.351562 6.632812 -2.953125 7.15625 -2.703125 C 7.6875 -2.453125 8.273438 -2.328125 8.921875 -2.328125 C 9.609375 -2.328125 10.253906 -2.429688 10.859375 -2.640625 C 11.460938 -2.859375 12.054688 -3.160156 12.640625 -3.546875 L 14.15625 -1.46875 C 13.488281 -0.914062 12.6875 -0.460938 11.75 -0.109375 C 10.820312 0.242188 9.800781 0.421875 8.6875 0.421875 C 7.125 0.421875 5.8125 0.0976562 4.75 -0.546875 C 3.6875 -1.191406 2.878906 -2.082031 2.328125 -3.21875 C 1.785156 -4.351562 1.515625 -5.664062 1.515625 -7.15625 C 1.515625 -8.5625 1.78125 -9.835938 2.3125 -10.984375 C 2.84375 -12.140625 3.613281 -13.050781 4.625 -13.71875 C 5.632812 -14.394531 6.847656 -14.734375 8.265625 -14.734375 C 9.585938 -14.734375 10.726562 -14.441406 11.6875 -13.859375 C 12.65625 -13.285156 13.398438 -12.457031 13.921875 -11.375 C 14.441406 -10.300781 14.703125 -9.003906 14.703125 -7.484375 C 14.703125 -7.242188 14.695312 -6.992188 14.6875 -6.734375 C 14.675781 -6.484375 14.660156 -6.257812 14.640625 -6.0625 Z M 8.28125 -12.171875 C 7.425781 -12.171875 6.722656 -11.863281 6.171875 -11.25 C 5.628906 -10.644531 5.3125 -9.679688 5.21875 -8.359375 L 11.15625 -8.359375 C 11.144531 -9.554688 10.898438 -10.488281 10.421875 -11.15625 C 9.953125 -11.832031 9.238281 -12.171875 8.28125 -12.171875 Z M 8.28125 -12.171875 "/></g></g></g></svg>